<svg id="Layer_1" enable-background="new 0 0 512.002 512.002" height="512" viewBox="0 0 512.002 512.002" width="512" xmlns="http://www.w3.org/2000/svg"><g><g clip-rule="evenodd" fill-rule="evenodd"><path d="m233.485 33.485c-14.491 14.49-23.485 34.494-23.485 56.515v20.001h40v-20.001c0-10.979 4.506-20.975 11.765-28.234s17.255-11.765 28.234-11.765 20.976 4.506 28.234 11.765c7.261 7.259 11.767 17.255 11.767 28.234v120.689c0 22.021 8.994 42.026 23.484 56.516s34.495 23.484 56.516 23.484c11.046 0 20-8.954 20-20s-8.954-20-20-20c-10.979 0-20.975-4.506-28.234-11.766-7.259-7.259-11.765-17.255-11.765-28.234v-120.689c0-22.021-8.994-42.026-23.485-56.515-14.49-14.49-34.495-23.485-56.516-23.485s-42.026 8.995-56.515 23.485z" fill="#fff"/><path d="m143.073 110.001h-113.073c-11 0-20 9-20 20v56.83z" fill="#c193dc"/><path d="m143.073 110.001-133.073 76.83v80l268.407-154.966c-2.559-1.195-5.408-1.864-8.406-1.864h-20.001-40z" fill="#ffee80"/><path d="m278.407 111.865-268.407 154.966v80l280.001-161.658v-55.171c0-8.001-4.763-14.946-11.594-18.137z" fill="#c193dc"/><path d="m290.001 185.172-280.001 161.659v80l280.001-161.659z" fill="#ffee80"/><path d="m290.001 265.172-280.001 161.659v55.171c0 8.002 4.764 14.945 11.595 18.134l268.406-154.964z" fill="#c193dc"/><path d="m290.001 345.172-268.407 154.966c2.559 1.195 5.408 1.864 8.406 1.864h126.928l133.073-76.83z" fill="#ffee80"/><path d="m290.001 425.172-133.073 76.83h113.073c10.997 0 20-9.003 20-20z" fill="#c193dc"/></g><g><path d="m410 240.688c-7.95 0-15.466-3.138-21.164-8.837-5.698-5.697-8.836-13.213-8.836-21.162v-120.689c0-49.626-40.374-90-90-90s-90 40.374-90 90v10.001h-170c-16.542 0-30 13.458-30 30v352.001c0 16.542 13.458 30 30 30h240.001c16.542 0 29.999-13.458 29.999-30v-352.001c0-16.542-13.457-30-29.999-30h-10.001v-10.001c0-16.541 13.458-29.999 30-29.999s30 13.458 30 29.999v120.689c0 23.973 9.381 46.554 26.413 63.586 17.032 17.033 39.614 26.414 63.587 26.414 16.542 0 30-13.458 30-30.001 0-16.542-13.458-30-30-30zm-165.684-120.687-224.316 129.509v-56.906l125.751-72.603zm-188.632 372.001 224.316-129.509v56.906l-125.753 72.604h-98.563zm224.316-362.001v49.398l-260 150.111v-56.906l257.802-148.843c1.372 1.713 2.198 3.88 2.198 6.24zm0 129.398-159.912 92.324c-4.783 2.762-6.422 8.877-3.66 13.66 1.853 3.208 5.213 5.002 8.67 5.002 1.696 0 3.416-.433 4.99-1.342l149.912-86.55v56.906l-257.802 148.842c-1.372-1.712-2.198-3.879-2.198-6.239v-49.398l32.136-18.553c4.783-2.761 6.422-8.877 3.66-13.66-2.762-4.782-8.873-6.421-13.66-3.66l-22.136 12.779v-56.906l260-150.111zm-250-139.398h75.752l-85.752 49.509v-39.509c0-5.514 4.487-10 10-10zm240.001 372.001h-75.754l85.753-49.51v39.51c0 5.514-4.485 10-9.999 10zm139.999-211.313c-18.63 0-36.189-7.301-49.444-20.557-13.256-13.253-20.556-30.813-20.556-49.443v-120.689c0-27.569-22.43-49.999-50-49.999s-50 22.43-50 49.999v10.001h-20v-10.001c0-38.598 31.402-70 70-70s70 31.402 70 70v120.689c0 13.292 5.219 25.83 14.694 35.304 9.475 9.477 22.014 14.695 35.306 14.695 5.514 0 10 4.486 10 10 0 5.515-4.486 10.001-10 10.001z"/><path d="m502.001 260.688h-31.999c-5.522 0-10 4.478-10 10s4.478 10 10 10h31.999c5.522 0 10-4.478 10-10s-4.477-10-10-10z"/><path d="m452.428 238.262c2.56 0 5.119-.977 7.071-2.929l22.627-22.628c3.905-3.905 3.905-10.237 0-14.143-3.906-3.904-10.238-3.904-14.143 0l-22.627 22.628c-3.905 3.905-3.905 10.237 0 14.143 1.954 1.952 4.513 2.929 7.072 2.929z"/><path d="m459.5 306.045c-3.905-3.902-10.235-3.904-14.143 0-3.905 3.905-3.905 10.237 0 14.143l22.627 22.628c1.953 1.952 4.512 2.929 7.071 2.929s5.118-.977 7.071-2.929c3.905-3.905 3.905-10.237 0-14.143z"/><path d="m86.115 392.886c5.522 0 10-4.478 10-10s-4.478-10-10-10h-.007c-5.522 0-9.996 4.478-9.996 10s4.48 10 10.003 10z"/></g></g></svg>