<svg id="Capa_1" enable-background="new 0 0 512 512" height="512" viewBox="0 0 512 512" width="512" xmlns="http://www.w3.org/2000/svg"><g id="XMLID_1420_"><path id="XMLID_44_" d="m97.279 234.721h80v280h-80z" fill="#66e0f7" transform="matrix(.707 .707 -.707 .707 305.176 12.682)"/><path id="XMLID_1408_" d="m129.921 438.647 63.441-63.44h-113.137l-63.441 63.44z" fill="#ffcd69"/><path id="XMLID_228_" d="m257.686 310.882 6.872-6.872-56.568-56.569-63.441 63.441z" fill="#ff7d97"/><g id="XMLID_354_"><path id="XMLID_397_" d="m215.061 240.37c-3.905-3.904-10.237-3.904-14.143 0l-197.989 197.99c-3.905 3.905-3.905 10.237 0 14.142l56.568 56.568c1.953 1.952 4.512 2.929 7.071 2.929s5.119-.977 7.071-2.929l197.99-197.99c1.875-1.876 2.929-4.419 2.929-7.071s-1.054-5.195-2.929-7.071zm-25.842 124.837h-84.852l43.441-43.441h84.853zm-63.44 63.44h-84.853l43.44-43.44h84.852zm82.211-167.063 40.183 40.182h-80.364zm-141.422 226.273-39.21-39.21h78.421z"/><path id="XMLID_937_" d="m367.413 144.587c-3.906-3.904-10.236-3.904-14.143 0l-87.681 87.681c-3.905 3.905-3.905 10.237 0 14.143 1.953 1.952 4.512 2.929 7.071 2.929 2.56 0 5.118-.977 7.071-2.929l87.681-87.681c3.906-3.906 3.906-10.238.001-14.143z"/><path id="XMLID_938_" d="m458.983 53.016c-3.906-3.904-10.236-3.904-14.143 0l-27.932 27.932c-3.905 3.905-3.905 10.237 0 14.143 1.953 1.952 4.512 2.929 7.071 2.929s5.118-.977 7.071-2.929l27.932-27.932c3.907-3.905 3.907-10.237.001-14.143z"/><path id="XMLID_939_" d="m509.071 17.071c3.905-3.905 3.905-10.237 0-14.143-3.906-3.904-10.236-3.904-14.143 0l-19.875 19.875c-3.905 3.905-3.905 10.237 0 14.143 1.953 1.952 4.512 2.929 7.071 2.929s5.118-.977 7.071-2.929z"/><path id="XMLID_941_" d="m244.376 221.055c2.559 0 5.119-.977 7.071-2.929 28.525-28.525 46.766-64.603 52.747-104.331.822-5.462-2.938-10.556-8.399-11.378-5.466-.824-10.557 2.939-11.378 8.399-5.34 35.471-21.631 67.688-47.111 93.167-3.905 3.905-3.906 10.237-.001 14.143 1.953 1.952 4.512 2.929 7.071 2.929z"/><path id="XMLID_942_" d="m398.205 207.806c-39.728 5.981-75.806 24.221-104.331 52.746-3.905 3.905-3.905 10.237 0 14.143 1.953 1.952 4.512 2.929 7.071 2.929s5.118-.977 7.071-2.929c25.479-25.48 57.696-41.771 93.167-47.111 5.461-.822 9.222-5.916 8.399-11.378-.82-5.463-5.91-9.228-11.377-8.4z"/><path id="XMLID_943_" d="m313.162 29.428c2.56 0 5.118-.976 7.071-2.929l9.428-9.428c3.905-3.905 3.905-10.237 0-14.143-3.906-3.904-10.236-3.904-14.143 0l-9.428 9.428c-3.905 3.905-3.905 10.237 0 14.143 1.954 1.952 4.512 2.929 7.072 2.929z"/><path id="XMLID_944_" d="m266.021 76.568c2.56 0 5.118-.977 7.071-2.929l9.428-9.428c3.905-3.905 3.905-10.237 0-14.143-3.906-3.904-10.236-3.904-14.143 0l-9.428 9.428c-3.905 3.905-3.905 10.237 0 14.143 1.954 1.953 4.513 2.929 7.072 2.929z"/><path id="XMLID_945_" d="m315.518 73.639c1.953 1.952 4.512 2.929 7.071 2.929 2.56 0 5.118-.977 7.071-2.929 3.905-3.905 3.905-10.237 0-14.143l-9.428-9.428c-3.906-3.904-10.236-3.904-14.143 0-3.905 3.905-3.905 10.237 0 14.143z"/><path id="XMLID_952_" d="m268.378 26.499c1.953 1.952 4.512 2.929 7.071 2.929s5.118-.976 7.071-2.929c3.905-3.905 3.905-10.237 0-14.143l-9.428-9.428c-3.906-3.904-10.236-3.904-14.143 0-3.905 3.905-3.905 10.237 0 14.143z"/><path id="XMLID_999_" d="m494.929 182.339-9.428 9.428c-3.905 3.905-3.905 10.237 0 14.143 1.953 1.952 4.512 2.929 7.071 2.929 2.56 0 5.118-.977 7.071-2.929l9.428-9.428c3.905-3.905 3.905-10.237 0-14.143-3.906-3.905-10.236-3.905-14.142 0z"/><path id="XMLID_1005_" d="m447.788 229.479-9.428 9.428c-3.905 3.905-3.905 10.237 0 14.143 1.953 1.952 4.512 2.929 7.071 2.929 2.56 0 5.118-.977 7.071-2.929l9.428-9.428c3.905-3.905 3.905-10.237 0-14.143-3.906-3.904-10.236-3.904-14.142 0z"/><path id="XMLID_1039_" d="m452.503 182.339c-3.906-3.904-10.236-3.904-14.143 0-3.905 3.905-3.905 10.237 0 14.143l9.428 9.428c1.953 1.952 4.512 2.929 7.071 2.929s5.118-.977 7.071-2.929c3.905-3.905 3.905-10.237 0-14.143z"/><path id="XMLID_1051_" d="m499.643 229.479c-3.906-3.904-10.236-3.904-14.143 0-3.905 3.905-3.905 10.237 0 14.143l9.428 9.428c1.953 1.952 4.512 2.929 7.071 2.929s5.118-.977 7.071-2.929c3.905-3.905 3.905-10.237 0-14.143z"/><path id="XMLID_1093_" d="m392.16 129.84c2.63 0 5.21-1.07 7.069-2.93 1.86-1.86 2.931-4.44 2.931-7.07s-1.07-5.21-2.931-7.07c-1.859-1.859-4.43-2.93-7.069-2.93-2.63 0-5.21 1.07-7.07 2.93s-2.93 4.44-2.93 7.07 1.069 5.21 2.93 7.07c1.86 1.859 4.44 2.93 7.07 2.93z"/></g></g></svg>