<svg id="Capa_1" enable-background="new 0 0 512 512" height="512" viewBox="0 0 512 512" width="512" xmlns="http://www.w3.org/2000/svg"><g><g><g><path d="m512 256c0 49.87-14.26 96.41-38.95 135.77l-.46.26c-5.4 3.05-8.99 8.51-9.65 14.67-3.18 4.35-6.49 8.6-9.93 12.74l-1.03.23c-5.44 1.19-9.34 5.98-9.37 11.55-1.82 1.94-3.66 3.84-5.54 5.72l-.26.04c-5.41.7-9.71 4.85-10.61 10.24-2.65 2.36-5.35 4.67-8.1 6.92-5.41.29-10.14 3.72-12.1 8.77l-.29.76.01.01c-3.09 2.23-6.23 4.4-9.42 6.49-4.35-2.92-10.29-1.24-12.46 3.53l-2.54 5.58v.01c-37.04 20.83-79.78 32.71-125.3 32.71-141.38 0-256-114.62-256-256 0-46.21 12.25-89.56 33.68-126.99 44.11-77.07 127.15-129.01 222.32-129.01s178.21 51.94 222.32 129.01c21.43 37.43 33.68 80.78 33.68 126.99z" fill="#313b5a"/><path d="m512 256c0 49.87-14.26 96.41-38.93 135.76l-.48.27c-5.41 3.06-9.01 8.54-9.66 14.72-3.17 4.33-6.46 8.56-9.88 12.68l-1.07.24c-5.45 1.19-9.35 6-9.37 11.58-1.81 1.93-3.64 3.82-5.52 5.69l-.28.04c-5.41.7-9.72 4.86-10.61 10.25-2.65 2.36-5.35 4.67-8.1 6.91-5.41.29-10.14 3.72-12.1 8.77l-.29.76c-3.09 2.24-6.22 4.4-9.41 6.5-4.35-2.92-10.29-1.24-12.46 3.53l-2.54 5.59c-37.04 20.83-79.78 32.71-125.3 32.71-141.38 0-256-114.62-256-256 0-46.21 12.25-89.56 33.68-126.99 44.12 77.07 127.16 129 222.32 129s178.2-51.93 222.32-129c21.43 37.43 33.68 80.78 33.68 126.99z" fill="#20273a"/></g></g><g><g><g><g><g><g><path d="m134.532 211.454c-4.142 0-7.5-3.358-7.5-7.5v-34.666c0-4.142 3.358-7.5 7.5-7.5s7.5 3.358 7.5 7.5v34.666c0 4.142-3.358 7.5-7.5 7.5z" fill="#fcbf10"/><path d="m134.532 261.336c-4.142 0-7.5-3.358-7.5-7.5v-21.567c0-4.142 3.358-7.5 7.5-7.5s7.5 3.358 7.5 7.5v21.567c0 4.142-3.358 7.5-7.5 7.5z" fill="#fcbf10"/><path d="m134.532 150.884c-4.142 0-7.5-3.358-7.5-7.5v-7.617c0-4.142 3.358-7.5 7.5-7.5s7.5 3.358 7.5 7.5v7.617c0 4.142-3.358 7.5-7.5 7.5z" fill="#fb8b23"/></g><g><path d="m134.532 426.501c-4.142 0-7.5-3.358-7.5-7.5v-34.667c0-4.142 3.358-7.5 7.5-7.5s7.5 3.358 7.5 7.5v34.667c0 4.143-3.358 7.5-7.5 7.5z" fill="#fb8b23"/><g fill="#fcbf10"><path d="m134.532 363.521c-4.142 0-7.5-3.358-7.5-7.5v-21.568c0-4.142 3.358-7.5 7.5-7.5s7.5 3.358 7.5 7.5v21.568c0 4.142-3.358 7.5-7.5 7.5z"/><path d="m134.532 460.022c-4.142 0-7.5-3.358-7.5-7.5v-7.618c0-4.142 3.358-7.5 7.5-7.5s7.5 3.358 7.5 7.5v7.618c0 4.143-3.358 7.5-7.5 7.5z"/></g></g></g><g><g><path d="m198.307 237.871c-1.919 0-3.839-.732-5.303-2.197-2.929-2.929-2.929-7.678 0-10.606l24.513-24.513c2.929-2.929 7.678-2.929 10.606 0 2.929 2.929 2.929 7.678 0 10.606l-24.513 24.513c-1.464 1.464-3.384 2.197-5.303 2.197z" fill="#fb8b23"/><g fill="#fcbf10"><path d="m163.035 273.142c-1.919 0-3.839-.732-5.303-2.197-2.929-2.929-2.929-7.678 0-10.606l15.251-15.25c2.929-2.929 7.678-2.93 10.606 0 2.929 2.929 2.929 7.678 0 10.606l-15.251 15.25c-1.464 1.465-3.384 2.197-5.303 2.197z"/><path d="m241.136 195.041c-1.919 0-3.839-.732-5.303-2.197-2.929-2.929-2.929-7.678 0-10.606l5.386-5.386c2.929-2.929 7.678-2.929 10.606 0 2.929 2.929 2.929 7.678 0 10.606l-5.386 5.386c-1.464 1.465-3.383 2.197-5.303 2.197z"/></g></g><g><path d="m46.246 389.932c-1.919 0-3.839-.732-5.303-2.197-2.929-2.929-2.929-7.678 0-10.606l24.513-24.513c2.929-2.929 7.678-2.929 10.606 0 2.929 2.929 2.929 7.678 0 10.606l-24.513 24.513c-1.465 1.464-3.384 2.197-5.303 2.197z" fill="#fb8b23"/><path d="m90.779 345.397c-1.919 0-3.839-.732-5.303-2.197-2.929-2.929-2.929-7.678 0-10.606l15.25-15.25c2.929-2.929 7.678-2.929 10.606 0 2.929 2.929 2.929 7.678 0 10.606l-15.25 15.25c-1.464 1.465-3.383 2.197-5.303 2.197z" fill="#fcbf10"/></g></g><g><g><path d="m259.389 301.645h-34.667c-4.142 0-7.5-3.358-7.5-7.5s3.358-7.5 7.5-7.5h34.667c4.142 0 7.5 3.358 7.5 7.5s-3.358 7.5-7.5 7.5z" fill="#fcbf10"/><path d="m196.409 301.645h-21.568c-4.142 0-7.5-3.358-7.5-7.5s3.358-7.5 7.5-7.5h21.568c4.142 0 7.5 3.358 7.5 7.5s-3.358 7.5-7.5 7.5z" fill="#fb8b23"/><path d="m292.91 301.645h-7.617c-4.142 0-7.5-3.358-7.5-7.5s3.358-7.5 7.5-7.5h7.617c4.142 0 7.5 3.358 7.5 7.5s-3.358 7.5-7.5 7.5z" fill="#fcbf10"/></g><g fill="#fcbf10"><path d="m44.342 301.645h-24.207c-4.142 0-7.5-3.358-7.5-7.5s3.358-7.5 7.5-7.5h24.207c4.142 0 7.5 3.358 7.5 7.5s-3.358 7.5-7.5 7.5z"/><path d="m94.224 301.645h-21.568c-4.142 0-7.5-3.358-7.5-7.5s3.358-7.5 7.5-7.5h21.568c4.142 0 7.5 3.358 7.5 7.5s-3.358 7.5-7.5 7.5z"/></g></g><g><g><path d="m222.819 389.932c-1.919 0-3.839-.732-5.303-2.197l-24.513-24.513c-2.929-2.929-2.929-7.678 0-10.606 2.929-2.929 7.678-2.929 10.606 0l24.513 24.513c2.929 2.929 2.929 7.678 0 10.606-1.464 1.464-3.383 2.197-5.303 2.197z" fill="#fb8b23"/><g fill="#fcbf10"><path d="m178.286 345.397c-1.919 0-3.839-.732-5.303-2.197l-15.251-15.25c-2.929-2.929-2.929-7.677 0-10.606s7.678-2.93 10.606 0l15.251 15.25c2.929 2.929 2.929 7.677 0 10.606-1.464 1.465-3.384 2.197-5.303 2.197z"/><path d="m246.522 413.634c-1.919 0-3.839-.732-5.303-2.197l-5.386-5.386c-2.929-2.929-2.929-7.678 0-10.606 2.929-2.929 7.678-2.929 10.606 0l5.386 5.386c2.929 2.929 2.929 7.678 0 10.606-1.464 1.465-3.383 2.197-5.303 2.197z"/></g></g><g fill="#fcbf10"><path d="m70.758 237.871c-1.919 0-3.839-.732-5.303-2.197l-24.513-24.513c-2.929-2.929-2.929-7.678 0-10.606 2.929-2.929 7.678-2.929 10.606 0l24.513 24.513c2.929 2.929 2.929 7.678 0 10.606-1.464 1.464-3.384 2.197-5.303 2.197z"/><path d="m106.03 273.142c-1.919 0-3.839-.732-5.303-2.197l-15.25-15.25c-2.929-2.929-2.929-7.678 0-10.606 2.929-2.929 7.678-2.929 10.606 0l15.25 15.25c2.929 2.929 2.929 7.678 0 10.606-1.464 1.465-3.384 2.197-5.303 2.197z"/><path d="m27.929 195.041c-1.919 0-3.839-.732-5.303-2.197l-5.386-5.386c-2.929-2.929-2.929-7.678 0-10.606 2.929-2.929 7.678-2.929 10.606 0l5.386 5.386c2.929 2.929 2.929 7.678 0 10.606-1.464 1.465-3.384 2.197-5.303 2.197z"/></g></g></g><g><g><g><g><path d="m51.256 266.052c-.998 0-2.013-.201-2.987-.624l-17.522-7.619c-3.798-1.651-5.539-6.07-3.887-9.869 1.651-3.798 6.068-5.54 9.869-3.887l17.522 7.619c3.798 1.652 5.539 6.07 3.887 9.869-1.228 2.824-3.987 4.511-6.882 4.511z" fill="#fb8b23"/><path d="m85.789 281.067c-1 0-2.016-.201-2.991-.625l-8.566-3.73c-3.797-1.654-5.536-6.073-3.882-9.871 1.654-3.797 6.071-5.536 9.871-3.882l8.566 3.73c3.797 1.654 5.536 6.073 3.882 9.871-1.229 2.822-3.986 4.507-6.88 4.507z" fill="#fcbf10"/></g></g><g><g><path d="m235.323 346.087c-.998 0-2.013-.201-2.987-.624l-17.522-7.619c-3.798-1.651-5.539-6.07-3.887-9.869 1.651-3.798 6.068-5.541 9.869-3.887l17.522 7.619c3.798 1.652 5.539 6.07 3.887 9.869-1.228 2.824-3.986 4.511-6.882 4.511z" fill="#fb8b23"/><path d="m191.84 327.184c-.997 0-2.009-.2-2.982-.622l-9.025-3.917c-3.8-1.649-5.543-6.066-3.894-9.866s6.065-5.546 9.866-3.894l9.025 3.917c3.8 1.649 5.543 6.066 3.894 9.866-1.227 2.827-3.986 4.516-6.884 4.516z" fill="#fcbf10"/></g></g></g><g><g><g><path d="m101.537 217.664c-3 0-5.833-1.813-6.989-4.776l-6.943-17.8c-1.505-3.859.403-8.208 4.262-9.713 3.861-1.505 8.208.403 9.713 4.262l6.943 17.8c1.505 3.859-.403 8.208-4.262 9.713-.896.349-1.818.514-2.724.514z" fill="#fb8b23"/><path d="m115.095 252.441c-3.001 0-5.834-1.813-6.99-4.778l-3.271-8.394c-1.504-3.859.405-8.208 4.264-9.711 3.863-1.505 8.208.405 9.711 4.264l3.271 8.394c1.504 3.859-.405 8.208-4.264 9.711-.895.349-1.816.514-2.721.514z" fill="#fcbf10"/></g></g><g><g><path d="m174.476 404.657c-3 0-5.833-1.813-6.989-4.776l-6.943-17.8c-1.505-3.859.403-8.208 4.262-9.713 3.862-1.503 8.208.403 9.713 4.262l6.943 17.8c1.505 3.859-.403 8.208-4.262 9.713-.896.349-1.818.514-2.724.514z" fill="#fcbf10"/><path d="m157.237 360.473c-3.001 0-5.833-1.813-6.989-4.777l-3.688-9.456c-1.505-3.859.403-8.208 4.262-9.712 3.857-1.506 8.208.403 9.712 4.262l3.688 9.456c1.505 3.859-.403 8.208-4.262 9.712-.895.349-1.817.515-2.723.515z" fill="#fb8b23"/></g></g></g><g><g><g><path d="m168.716 218.137c-.94 0-1.896-.178-2.821-.554-3.837-1.56-5.684-5.935-4.125-9.772l7.193-17.701c1.56-3.837 5.936-5.684 9.772-4.125 3.837 1.56 5.684 5.935 4.125 9.772l-7.193 17.701c-1.184 2.914-3.99 4.679-6.951 4.679z" fill="#fb8b23"/><path d="m154.664 252.729c-.938 0-1.89-.177-2.812-.55-3.84-1.554-5.692-5.927-4.138-9.766l3.386-8.365c1.555-3.84 5.928-5.69 9.766-4.138 3.84 1.554 5.692 5.927 4.138 9.766l-3.386 8.365c-1.18 2.917-3.989 4.688-6.954 4.688z" fill="#fcbf10"/></g></g><g><g fill="#fcbf10"><path d="m93.15 404.084c-.94 0-1.896-.178-2.821-.554-3.837-1.56-5.684-5.935-4.125-9.772l7.193-17.701c1.56-3.837 5.936-5.685 9.772-4.125 3.837 1.56 5.684 5.935 4.125 9.772l-7.193 17.701c-1.184 2.914-3.99 4.679-6.951 4.679z"/><path d="m111.001 360.157c-.938 0-1.893-.177-2.816-.552-3.838-1.556-5.688-5.93-4.132-9.769l3.817-9.413c1.557-3.838 5.93-5.688 9.769-4.132 3.838 1.556 5.688 5.93 4.132 9.769l-3.817 9.413c-1.183 2.916-3.99 4.684-6.953 4.684z"/></g></g></g><g><g><g fill="#fcbf10"><path d="m218.924 268.737c-2.983 0-5.804-1.792-6.973-4.733-1.529-3.85.352-8.21 4.201-9.739l17.757-7.054c3.853-1.53 8.21.352 9.739 4.201 1.529 3.85-.352 8.21-4.201 9.739l-17.757 7.054c-.908.361-1.845.532-2.766.532z"/><path d="m183.912 282.646c-2.982 0-5.802-1.791-6.972-4.73-1.531-3.849.349-8.21 4.198-9.741l8.695-3.458c3.852-1.529 8.21.349 9.741 4.198s-.349 8.21-4.198 9.741l-8.695 3.458c-.91.36-1.848.532-2.769.532z"/></g></g><g><g><path d="m32.389 342.837c-2.983 0-5.804-1.792-6.973-4.733-1.529-3.85.352-8.21 4.201-9.739l17.757-7.054c3.851-1.53 8.21.353 9.739 4.201 1.529 3.85-.352 8.21-4.201 9.739l-17.757 7.054c-.908.362-1.845.532-2.766.532z" fill="#fcbf10"/><path d="m76.454 325.333c-2.982 0-5.802-1.79-6.971-4.729-1.531-3.849.348-8.21 4.196-9.741l9.126-3.63c3.85-1.532 8.21.348 9.741 4.196 1.531 3.849-.348 8.21-4.196 9.741l-9.126 3.63c-.91.362-1.848.533-2.77.533z" fill="#fb8b23"/></g></g></g></g></g><g><g><g><g><path d="m360.556 77.975c-4.142 0-7.5-3.358-7.5-7.5v-35.362c0-4.142 3.358-7.5 7.5-7.5s7.5 3.358 7.5 7.5v35.361c0 4.143-3.358 7.501-7.5 7.501z" fill="#6cdc2d"/><path d="m360.556 113.246c-4.142 0-7.5-3.358-7.5-7.5v-15.25c0-4.142 3.358-7.5 7.5-7.5s7.5 3.358 7.5 7.5v15.25c0 4.142-3.358 7.5-7.5 7.5z" fill="#b6e337"/></g><g><path d="m360.556 230.036c-4.142 0-7.5-3.358-7.5-7.5v-24.513c0-4.142 3.358-7.5 7.5-7.5s7.5 3.358 7.5 7.5v24.513c0 4.142-3.358 7.5-7.5 7.5z" fill="#6cdc2d"/><g fill="#b6e337"><path d="m360.556 185.502c-4.142 0-7.5-3.358-7.5-7.5v-15.251c0-4.142 3.358-7.5 7.5-7.5s7.5 3.358 7.5 7.5v15.251c0 4.142-3.358 7.5-7.5 7.5z"/><path d="m360.556 253.739c-4.142 0-7.5-3.358-7.5-7.5v-5.386c0-4.142 3.358-7.5 7.5-7.5s7.5 3.358 7.5 7.5v5.386c0 4.142-3.358 7.5-7.5 7.5z"/></g></g></g><g fill="#b6e337"><g><path d="m405.651 96.654c-1.919 0-3.839-.732-5.303-2.197-2.929-2.929-2.929-7.677 0-10.606l12.979-12.98c2.929-2.929 7.678-2.929 10.606 0 2.929 2.929 2.929 7.677 0 10.606l-12.979 12.98c-1.464 1.464-3.384 2.197-5.303 2.197z"/><path d="m380.71 121.594c-1.919 0-3.839-.732-5.303-2.197-2.929-2.929-2.929-7.678 0-10.606l10.784-10.784c2.929-2.929 7.678-2.929 10.606 0 2.929 2.929 2.929 7.678 0 10.606l-10.784 10.784c-1.464 1.465-3.384 2.197-5.303 2.197z"/></g><g><path d="m298.127 204.177c-1.919 0-3.839-.732-5.303-2.197-2.929-2.929-2.929-7.677 0-10.606l17.333-17.333c2.929-2.929 7.678-2.929 10.606 0 2.929 2.929 2.929 7.677 0 10.606l-17.333 17.333c-1.464 1.465-3.383 2.197-5.303 2.197z"/><path d="m329.618 172.687c-1.919 0-3.839-.732-5.303-2.197-2.929-2.929-2.929-7.677 0-10.606l10.784-10.784c2.929-2.929 7.678-2.93 10.606 0 2.929 2.929 2.929 7.677 0 10.606l-10.784 10.784c-1.464 1.465-3.384 2.197-5.303 2.197z"/><path d="m281.367 220.938c-1.919 0-3.839-.732-5.303-2.197-2.929-2.929-2.929-7.678 0-10.606l3.809-3.809c2.929-2.929 7.678-2.929 10.606 0 2.929 2.929 2.929 7.678 0 10.606l-3.809 3.809c-1.464 1.464-3.384 2.197-5.303 2.197z"/></g></g><g><g><path d="m448.843 141.749h-24.513c-4.142 0-7.5-3.358-7.5-7.5s3.358-7.5 7.5-7.5h24.513c4.142 0 7.5 3.358 7.5 7.5s-3.358 7.5-7.5 7.5z" fill="#6cdc2d"/><path d="m404.309 141.749h-15.25c-4.142 0-7.5-3.358-7.5-7.5s3.358-7.5 7.5-7.5h15.25c4.142 0 7.5 3.358 7.5 7.5s-3.358 7.5-7.5 7.5z" fill="#6cdc2d"/><path d="m470.106 141.749h-2.947c-4.142 0-7.5-3.358-7.5-7.5s3.358-7.5 7.5-7.5h2.947c4.142 0 7.5 3.358 7.5 7.5s-3.357 7.5-7.5 7.5z" fill="#b6e337"/></g><g><path d="m296.782 141.749h-24.513c-4.142 0-7.5-3.358-7.5-7.5s3.358-7.5 7.5-7.5h24.513c4.142 0 7.5 3.358 7.5 7.5s-3.358 7.5-7.5 7.5z" fill="#b6e337"/><path d="m332.053 141.749h-15.25c-4.142 0-7.5-3.358-7.5-7.5s3.358-7.5 7.5-7.5h15.25c4.142 0 7.5 3.358 7.5 7.5s-3.358 7.5-7.5 7.5z" fill="#6cdc2d"/><path d="m253.952 141.749h-5.386c-4.142 0-7.5-3.358-7.5-7.5s3.358-7.5 7.5-7.5h5.386c4.142 0 7.5 3.358 7.5 7.5s-3.358 7.5-7.5 7.5z" fill="#b6e337"/></g></g><g><g><path d="m422.984 204.177c-1.919 0-3.839-.732-5.303-2.197l-17.333-17.333c-2.929-2.929-2.929-7.678 0-10.606 2.929-2.929 7.678-2.929 10.606 0l17.333 17.333c2.929 2.929 2.929 7.678 0 10.606-1.464 1.465-3.384 2.197-5.303 2.197z" fill="#6cdc2d"/><g fill="#b6e337"><path d="m391.494 172.687c-1.919 0-3.839-.732-5.303-2.197l-10.784-10.784c-2.929-2.929-2.929-7.678 0-10.606 2.929-2.929 7.678-2.93 10.606 0l10.784 10.784c2.929 2.929 2.929 7.678 0 10.606-1.464 1.465-3.384 2.197-5.303 2.197z"/><path d="m439.745 220.938c-1.919 0-3.839-.732-5.303-2.197l-3.809-3.809c-2.929-2.929-2.929-7.678 0-10.606 2.929-2.929 7.678-2.929 10.606 0l3.809 3.809c2.929 2.929 2.929 7.678 0 10.606-1.465 1.464-3.384 2.197-5.303 2.197z"/></g></g><g><path d="m315.46 96.654c-1.919 0-3.839-.732-5.303-2.197l-17.333-17.333c-2.929-2.929-2.929-7.678 0-10.606 2.929-2.929 7.678-2.929 10.606 0l17.333 17.333c2.929 2.929 2.929 7.678 0 10.606-1.464 1.464-3.384 2.197-5.303 2.197z" fill="#6cdc2d"/><g fill="#b6e337"><path d="m340.401 121.594c-1.919 0-3.839-.732-5.303-2.197l-10.784-10.784c-2.929-2.929-2.929-7.678 0-10.606 2.929-2.929 7.678-2.929 10.606 0l10.784 10.784c2.929 2.929 2.929 7.678 0 10.606-1.464 1.465-3.383 2.197-5.303 2.197z"/><path d="m285.175 66.369c-1.919 0-3.839-.732-5.303-2.197l-3.809-3.809c-2.929-2.929-2.929-7.678 0-10.606 2.929-2.929 7.678-2.929 10.606 0l3.809 3.809c2.929 2.929 2.929 7.678 0 10.606-1.464 1.464-3.383 2.197-5.303 2.197z"/></g></g></g></g><g><g><g><g><path d="m301.669 116.582c-.998 0-2.013-.201-2.987-.624l-12.39-5.387c-3.798-1.652-5.539-6.07-3.887-9.869 1.651-3.798 6.068-5.541 9.869-3.887l12.39 5.387c3.798 1.652 5.539 6.07 3.887 9.869-1.228 2.825-3.987 4.511-6.882 4.511z" fill="#b6e337"/></g></g><g><g><path d="m431.824 173.175c-.998 0-2.013-.201-2.987-.624l-12.39-5.388c-3.799-1.652-5.539-6.07-3.887-9.869s6.069-5.54 9.869-3.887l12.39 5.388c3.799 1.652 5.539 6.07 3.887 9.869-1.228 2.825-3.986 4.511-6.882 4.511z" fill="#b6e337"/></g></g></g><g><g><g><path d="m337.225 82.366c-3 0-5.833-1.813-6.989-4.776l-4.91-12.587c-1.505-3.859.403-8.208 4.262-9.713 3.861-1.505 8.208.403 9.713 4.262l4.91 12.587c1.505 3.859-.403 8.208-4.262 9.713-.896.349-1.818.514-2.724.514z" fill="#b6e337"/></g></g><g><g><path d="m388.8 214.59c-3 0-5.833-1.813-6.989-4.776l-4.91-12.587c-1.505-3.859.403-8.208 4.262-9.713 3.86-1.504 8.208.403 9.713 4.262l4.91 12.587c1.505 3.859-.403 8.208-4.262 9.713-.896.349-1.817.514-2.724.514z" fill="#b6e337"/></g></g></g><g><g><g><path d="m384.727 82.701c-.94 0-1.896-.178-2.821-.554-3.837-1.56-5.684-5.935-4.125-9.772l5.086-12.516c1.56-3.837 5.936-5.685 9.772-4.125 3.837 1.56 5.684 5.935 4.125 9.772l-5.086 12.516c-1.184 2.913-3.99 4.679-6.951 4.679z" fill="#b6e337"/></g></g><g><g><path d="m331.293 214.185c-.94 0-1.896-.178-2.821-.554-3.837-1.56-5.684-5.935-4.125-9.772l5.086-12.516c1.56-3.838 5.937-5.683 9.772-4.125 3.837 1.56 5.684 5.935 4.125 9.772l-5.086 12.516c-1.183 2.913-3.99 4.679-6.951 4.679z" fill="#b6e337"/></g></g></g><g><g><g><path d="m420.23 118.48c-2.983 0-5.804-1.792-6.973-4.733-1.529-3.85.352-8.21 4.201-9.739l12.556-4.988c3.852-1.531 8.21.353 9.739 4.201 1.529 3.85-.352 8.21-4.201 9.739l-12.556 4.988c-.908.362-1.845.532-2.766.532z" fill="#b6e337"/></g></g><g><g><path d="m288.33 170.877c-2.983 0-5.804-1.792-6.973-4.733-1.529-3.85.352-8.21 4.201-9.739l12.556-4.988c3.851-1.528 8.21.352 9.739 4.201 1.529 3.85-.352 8.21-4.201 9.739l-12.556 4.988c-.908.361-1.846.532-2.766.532z" fill="#b6e337"/></g></g></g></g></g><g><g><g><g fill="#fe3345"><path d="m388.798 346.048c-4.142 0-7.5-3.358-7.5-7.5v-23.334c0-4.142 3.358-7.5 7.5-7.5s7.5 3.358 7.5 7.5v23.334c0 4.142-3.358 7.5-7.5 7.5z"/><path d="m388.798 379.624c-4.142 0-7.5-3.358-7.5-7.5v-14.517c0-4.142 3.358-7.5 7.5-7.5s7.5 3.358 7.5 7.5v14.517c0 4.142-3.358 7.5-7.5 7.5z"/><path d="m388.798 305.279c-4.142 0-7.5-3.358-7.5-7.5v-5.127c0-4.142 3.358-7.5 7.5-7.5s7.5 3.358 7.5 7.5v5.127c0 4.142-3.358 7.5-7.5 7.5z"/></g><g><path d="m396.3 459.96v10.21c-4.89 3.2-9.89 6.24-15 9.12v-19.33c0-4.14 3.36-7.5 7.5-7.5s7.5 3.36 7.5 7.5z" fill="#ff576b"/><path d="m388.798 448.404c-4.142 0-7.5-3.358-7.5-7.5v-14.517c0-4.142 3.358-7.5 7.5-7.5s7.5 3.358 7.5 7.5v14.517c0 4.142-3.358 7.5-7.5 7.5z" fill="#fe3345"/></g></g><g><g fill="#fe3345"><path d="m431.725 363.829c-1.919 0-3.839-.732-5.303-2.197-2.929-2.929-2.929-7.677 0-10.606l16.5-16.5c2.929-2.929 7.678-2.93 10.606 0 2.929 2.929 2.929 7.677 0 10.606l-16.5 16.5c-1.465 1.465-3.384 2.197-5.303 2.197z"/><path d="m407.983 387.57c-1.919 0-3.839-.732-5.303-2.197-2.929-2.929-2.929-7.678 0-10.606l10.265-10.265c2.929-2.929 7.678-2.929 10.606 0 2.929 2.929 2.929 7.678 0 10.606l-10.265 10.265c-1.464 1.465-3.383 2.197-5.303 2.197z"/><path d="m460.553 335c-1.919 0-3.839-.732-5.304-2.197-2.929-2.929-2.928-7.678.001-10.606l3.626-3.625c2.929-2.929 7.678-2.928 10.606.001 2.929 2.929 2.928 7.678-.001 10.606l-3.626 3.625c-1.464 1.465-3.383 2.196-5.302 2.196z"/></g><g><path d="m329.373 466.181c-1.919 0-3.839-.732-5.303-2.197-2.929-2.929-2.929-7.678 0-10.606l16.5-16.5c2.929-2.929 7.678-2.929 10.606 0 2.929 2.929 2.929 7.678 0 10.606l-16.5 16.5c-1.465 1.464-3.384 2.197-5.303 2.197z" fill="#ff576b"/><g fill="#fe3345"><path d="m359.348 436.205c-1.919 0-3.839-.732-5.303-2.197-2.929-2.929-2.929-7.678 0-10.606l10.265-10.265c2.929-2.929 7.678-2.929 10.606 0 2.929 2.929 2.929 7.678 0 10.606l-10.265 10.265c-1.464 1.465-3.383 2.197-5.303 2.197z"/><path d="m313.418 482.135c-1.919 0-3.839-.732-5.303-2.197-2.929-2.929-2.929-7.678 0-10.606l3.625-3.625c2.929-2.929 7.678-2.929 10.606 0 2.929 2.929 2.929 7.678 0 10.606l-3.625 3.625c-1.464 1.465-3.384 2.197-5.303 2.197z"/></g></g></g><g><g><path d="m473.07 391.76c-3.21 5.12-6.59 10.12-10.14 14.99h-13.42c-4.15 0-7.5-3.35-7.5-7.5 0-4.14 3.35-7.5 7.5-7.5h23.33c.08 0 .15 0 .23.01z" fill="#fe3345"/><path d="m430.447 406.755h-14.517c-4.142 0-7.5-3.358-7.5-7.5s3.358-7.5 7.5-7.5h14.518c4.142 0 7.5 3.358 7.5 7.5s-3.359 7.5-7.501 7.5z" fill="#ff576b"/></g><g><path d="m328.091 406.755h-23.333c-4.142 0-7.5-3.358-7.5-7.5s3.358-7.5 7.5-7.5h23.333c4.142 0 7.5 3.358 7.5 7.5s-3.358 7.5-7.5 7.5z" fill="#fe3345"/><path d="m361.667 406.755h-14.517c-4.142 0-7.5-3.358-7.5-7.5s3.358-7.5 7.5-7.5h14.517c4.142 0 7.5 3.358 7.5 7.5s-3.358 7.5-7.5 7.5z" fill="#ff576b"/><path d="m287.322 406.755h-5.127c-4.142 0-7.5-3.358-7.5-7.5s3.358-7.5 7.5-7.5h5.127c4.142 0 7.5 3.358 7.5 7.5s-3.358 7.5-7.5 7.5z" fill="#fe3345"/></g></g><g><g><path d="m437.09 436.94c-3.52 3.53-7.16 6.96-10.89 10.29-2.71-2.94-2.63-7.5.22-10.35 2.93-2.93 7.68-2.93 10.61 0z" fill="#ff576b"/><path d="m418.249 436.205c-1.919 0-3.839-.732-5.303-2.197l-10.265-10.265c-2.929-2.929-2.929-7.678 0-10.606 2.929-2.929 7.678-2.929 10.606 0l10.265 10.265c2.929 2.929 2.929 7.678 0 10.606-1.465 1.465-3.384 2.197-5.303 2.197z" fill="#fe3345"/></g><g><path d="m345.872 363.829c-1.919 0-3.839-.732-5.303-2.197l-16.5-16.5c-2.929-2.929-2.929-7.678 0-10.606 2.929-2.929 7.678-2.929 10.606 0l16.5 16.5c2.929 2.929 2.929 7.678 0 10.606-1.464 1.465-3.384 2.197-5.303 2.197z" fill="#ff576b"/><g fill="#fe3345"><path d="m369.613 387.57c-1.919 0-3.839-.732-5.303-2.197l-10.265-10.265c-2.929-2.929-2.929-7.678 0-10.606 2.929-2.929 7.678-2.929 10.606 0l10.265 10.265c2.929 2.929 2.929 7.678 0 10.606-1.464 1.465-3.383 2.197-5.303 2.197z"/><path d="m317.043 335c-1.919 0-3.839-.732-5.303-2.197l-3.625-3.625c-2.929-2.929-2.929-7.678 0-10.606 2.929-2.929 7.678-2.929 10.606 0l3.625 3.625c2.929 2.929 2.929 7.678 0 10.606-1.464 1.465-3.383 2.197-5.303 2.197z"/></g></g></g></g><g><g><g><g><path d="m332.744 382.799c-.998 0-2.013-.201-2.987-.624l-11.794-5.128c-3.799-1.652-5.539-6.07-3.887-9.869 1.651-3.798 6.068-5.54 9.869-3.887l11.794 5.128c3.799 1.652 5.539 6.07 3.887 9.869-1.229 2.824-3.987 4.511-6.882 4.511z" fill="#fe3345"/></g></g><g><g><path d="m453.05 419.43c-3.36 4.05-6.84 7.99-10.44 11.82l-.75-.33c-3.8-1.65-5.54-6.07-3.89-9.87s6.07-5.54 9.87-3.89z" fill="#fe3345"/></g></g></g><g><g><g><path d="m366.589 350.229c-3 0-5.833-1.813-6.989-4.776l-4.673-11.981c-1.505-3.859.403-8.208 4.262-9.713 3.861-1.505 8.208.403 9.713 4.262l4.673 11.981c1.505 3.859-.403 8.208-4.262 9.713-.896.348-1.817.514-2.724.514z" fill="#fe3345"/></g></g><g><g><path d="m418.1 454.14c-4.03 3.31-8.16 6.49-12.39 9.53l-1.69-4.33c-1.5-3.86.4-8.21 4.26-9.72 3.87-1.5 8.21.41 9.72 4.26z" fill="#ff576b"/></g></g></g><g><g><g><path d="m411.807 350.547c-.94 0-1.896-.178-2.821-.554-3.837-1.56-5.684-5.935-4.125-9.772l4.842-11.915c1.56-3.837 5.934-5.684 9.772-4.125 3.837 1.56 5.684 5.935 4.125 9.772l-4.842 11.915c-1.184 2.913-3.99 4.679-6.951 4.679z" fill="#ff576b"/></g></g><g><g><path d="m360.943 475.708c-.94 0-1.896-.178-2.821-.554-3.837-1.56-5.684-5.935-4.125-9.772l4.842-11.914c1.56-3.837 5.935-5.685 9.772-4.125s5.684 5.935 4.125 9.772l-4.842 11.914c-1.184 2.913-3.99 4.679-6.951 4.679z" fill="#fe3345"/></g></g></g><g><g><g><path d="m445.603 384.606c-2.983 0-5.804-1.792-6.972-4.733-1.529-3.85.352-8.209 4.202-9.739l11.952-4.748c3.85-1.531 8.209.352 9.739 4.202 1.529 3.85-.352 8.209-4.202 9.739l-11.952 4.748c-.909.36-1.846.531-2.767.531z" fill="#fe3345"/></g></g><g><g><path d="m320.046 434.482c-2.983 0-5.804-1.792-6.973-4.733-1.529-3.85.352-8.21 4.201-9.739l11.952-4.748c3.853-1.531 8.21.352 9.739 4.201 1.529 3.85-.352 8.21-4.201 9.739l-11.952 4.748c-.908.362-1.845.532-2.766.532z" fill="#fe3345"/></g></g></g></g></g></g><g><g><path d="m199.114 444.046h1.524c6.753 0 12.227-5.474 12.227-12.227v-1.524h8.716v1.524c0 6.753 5.474 12.227 12.227 12.227h1.525v8.716h-1.525c-6.753 0-12.227 5.474-12.227 12.227v1.525h-8.716v-1.525c0-6.753-5.474-12.227-12.227-12.227h-1.524z" fill="#fff"/></g></g><g><g><path d="m462.23 259.826h1.524c6.753 0 12.227-5.474 12.227-12.227v-1.524h8.716v1.524c0 6.753 5.474 12.227 12.227 12.227h1.525v8.716h-1.525c-6.753 0-12.227 5.474-12.227 12.227v1.525h-8.716v-1.525c0-6.753-5.474-12.227-12.227-12.227h-1.524z" fill="#fff"/></g></g><g><g><path d="m298.315 256.978h1.524c6.753 0 12.227-5.474 12.227-12.227v-1.524h8.716v1.524c0 6.753 5.474 12.227 12.227 12.227h1.525v8.716h-1.525c-6.753 0-12.227 5.474-12.227 12.227v1.525h-8.716v-1.525c0-6.753-5.474-12.227-12.227-12.227h-1.524z" fill="#fff"/></g></g><g><g><path d="m176.186 123.497h1.524c6.753 0 12.227-5.474 12.227-12.227v-1.524h8.716v1.524c0 6.753 5.474 12.227 12.227 12.227h1.525v8.716h-1.525c-6.753 0-12.227 5.474-12.227 12.227v1.525h-8.716v-1.525c0-6.753-5.474-12.227-12.227-12.227h-1.524z" fill="#fff"/></g></g></g></g></svg>